#Comment line ignore any data following # character 
#Hierarchical Translation and Rotation (.htr) file 
[Header]	
#Header keywords are followed by a single value 
FileType HTR		#Single word string
DataType HTRS		#Translation followed by rotation and scale data
FileVersion 1		#integer
NumSegments 64		#integer
NumFrames 3		#integer
DataFrameRate 30		#integer, data frame rate in this file
EulerRotationOrder ZYX
CalibrationUnits mm
RotationUnits Degrees
GlobalAxisofGravity Y
BoneLengthAxis Y
ScaleFactor 1.00
[SegmentNames&Hierarchy]
#CHILD	PARENT
Pinger_Root GLOBAL
Pelvis Pinger_Root
L_Hip Pelvis
R_Hip Pelvis
Rear_Leg01 Pelvis
Spine1 Pelvis
L_Leg01 L_Hip
L_Leg02 L_Leg01
L_Leg03 L_Leg02
L_Foot L_Leg03
L_Toe1_01 L_Foot
L_Toe2_01 L_Foot
L_Toe3_01 L_Foot
planeAlignerLeft L_Foot
L_Toe1_02 L_Toe1_01
L_Toe1_03 L_Toe1_02
L_Toe2_02 L_Toe2_01
L_Toe2_03 L_Toe2_02
L_Toe3_02 L_Toe3_01
L_Toe3_03 L_Toe3_02
planeLockWeightLeft planeAlignerLeft
R_Leg01 R_Hip
R_Leg02 R_Leg01
R_Leg03 R_Leg02
R_Foot R_Leg03
planeAlignerRight R_Foot
R_Toe1_01 R_Foot
R_Toe2_01 R_Foot
R_Toe3_01 R_Foot
planeLockWeightRight planeAlignerRight
R_Toe1_02 R_Toe1_01
R_Toe1_03 R_Toe1_02
R_Toe2_02 R_Toe2_01
R_Toe2_03 R_Toe2_02
R_Toe3_02 R_Toe3_01
R_Toe3_03 R_Toe3_02
Rear_Leg02 Rear_Leg01
Rear_Leg03 Rear_Leg02
Rear_Leg04 Rear_Leg03
Rear_Foot Rear_Leg04
planeAlignerCenter Rear_Foot
Rear_Toe1_01 Rear_Foot
Rear_Toe2_01 Rear_Foot
Rear_Toe3_01 Rear_Foot
planeLockWeightCenter planeAlignerCenter
Rear_Toe1_02 Rear_Toe1_01
Rear_Toe1_03 Rear_Toe1_02
Rear_Toe2_02 Rear_Toe2_01
Rear_Toe2_03 Rear_Toe2_02
Rear_Toe3_02 Rear_Toe3_01
Rear_Toe3_03 Rear_Toe3_02
Back_Bone Spine1
Head Spine1
Motor_Bone Back_Bone
Ping_Mechanism Back_Bone
BN_LookIK Head
bottomMouth Head
L_Mouth01 Head
L_mouthFront Head
mouthGun Head
R_Mouth01 Head
R_mouthFront Head
TopMouth Head
weapon_bone Head
[BasePosition]
#SegmentName Tx, Ty, Tz, Rx, Ry, Rz, BoneLength
Pinger_Root 0.000000 0.000000 0.000000 -90.000000 0.000000 0.000000 10.000000 
Pelvis 0.000000 0.000000 0.000000 0.000000 0.000000 0.000000 10.000000 
L_Hip 0.000000 0.000000 0.000000 0.000000 0.000000 0.000000 10.000000 
R_Hip 0.000000 0.000000 0.000000 0.000000 0.000000 0.000000 10.000000 
Rear_Leg01 0.000000 0.000000 0.000000 0.000000 0.000000 0.000000 10.000000 
Spine1 0.000000 0.000000 0.000000 0.000000 0.000000 0.000000 10.000000 
L_Leg01 0.000000 0.000000 0.000000 0.000000 0.000000 0.000000 10.000000 
L_Leg02 0.000000 0.000000 0.000000 0.000000 0.000000 0.000000 10.000000 
L_Leg03 0.000000 0.000000 0.000000 0.000000 0.000000 0.000000 10.000000 
L_Foot 0.000000 0.000000 0.000000 0.000000 0.000000 0.000000 10.000000 
L_Toe1_01 0.000000 0.000000 0.000000 0.000000 0.000000 0.000000 10.000000 
L_Toe2_01 0.000000 0.000000 0.000000 0.000000 0.000000 0.000000 10.000000 
L_Toe3_01 0.000000 0.000000 0.000000 0.000000 0.000000 0.000000 10.000000 
planeAlignerLeft 0.000000 0.000000 0.000000 0.000000 0.000000 0.000000 10.000000 
L_Toe1_02 0.000000 0.000000 0.000000 0.000000 0.000000 0.000000 10.000000 
L_Toe1_03 0.000000 0.000000 0.000000 0.000000 0.000000 0.000000 10.000000 
L_Toe2_02 0.000000 0.000000 0.000000 0.000000 0.000000 0.000000 10.000000 
L_Toe2_03 0.000000 0.000000 0.000000 0.000000 0.000000 0.000000 10.000000 
L_Toe3_02 0.000000 0.000000 0.000000 0.000000 0.000000 0.000000 10.000000 
L_Toe3_03 0.000000 0.000000 0.000000 0.000000 0.000000 0.000000 10.000000 
planeLockWeightLeft 0.000000 0.000000 0.000000 0.000000 0.000000 0.000000 10.000000 
R_Leg01 0.000000 0.000000 0.000000 0.000000 0.000000 0.000000 10.000000 
R_Leg02 0.000000 0.000000 0.000000 0.000000 0.000000 0.000000 10.000000 
R_Leg03 0.000000 0.000000 0.000000 0.000000 0.000000 0.000000 10.000000 
R_Foot 0.000000 0.000000 0.000000 0.000000 0.000000 0.000000 10.000000 
planeAlignerRight 0.000000 0.000000 0.000000 0.000000 0.000000 0.000000 10.000000 
R_Toe1_01 0.000000 0.000000 0.000000 0.000000 0.000000 0.000000 10.000000 
R_Toe2_01 0.000000 0.000000 0.000000 0.000000 0.000000 0.000000 10.000000 
R_Toe3_01 0.000000 0.000000 0.000000 0.000000 0.000000 0.000000 10.000000 
planeLockWeightRight 0.000000 0.000000 0.000000 0.000000 0.000000 0.000000 10.000000 
R_Toe1_02 0.000000 0.000000 0.000000 0.000000 0.000000 0.000000 10.000000 
R_Toe1_03 0.000000 0.000000 0.000000 0.000000 0.000000 0.000000 10.000000 
R_Toe2_02 0.000000 0.000000 0.000000 0.000000 0.000000 0.000000 10.000000 
R_Toe2_03 0.000000 0.000000 0.000000 0.000000 0.000000 0.000000 10.000000 
R_Toe3_02 0.000000 0.000000 0.000000 0.000000 0.000000 0.000000 10.000000 
R_Toe3_03 0.000000 0.000000 0.000000 0.000000 0.000000 0.000000 10.000000 
Rear_Leg02 0.000000 0.000000 0.000000 0.000000 0.000000 0.000000 10.000000 
Rear_Leg03 0.000000 0.000000 0.000000 0.000000 0.000000 0.000000 10.000000 
Rear_Leg04 0.000000 0.000000 0.000000 0.000000 0.000000 0.000000 10.000000 
Rear_Foot 0.000000 0.000000 0.000000 0.000000 0.000000 0.000000 10.000000 
planeAlignerCenter 0.000000 0.000000 0.000000 0.000000 0.000000 0.000000 10.000000 
Rear_Toe1_01 0.000000 0.000000 0.000000 0.000000 0.000000 0.000000 10.000000 
Rear_Toe2_01 0.000000 0.000000 0.000000 0.000000 0.000000 0.000000 10.000000 
Rear_Toe3_01 0.000000 0.000000 0.000000 0.000000 0.000000 0.000000 10.000000 
planeLockWeightCenter 0.000000 0.000000 0.000000 0.000000 0.000000 0.000000 10.000000 
Rear_Toe1_02 0.000000 0.000000 0.000000 0.000000 0.000000 0.000000 10.000000 
Rear_Toe1_03 0.000000 0.000000 0.000000 0.000000 0.000000 0.000000 10.000000 
Rear_Toe2_02 0.000000 0.000000 0.000000 0.000000 0.000000 0.000000 10.000000 
Rear_Toe2_03 0.000000 0.000000 0.000000 0.000000 0.000000 0.000000 10.000000 
Rear_Toe3_02 0.000000 0.000000 0.000000 0.000000 0.000000 0.000000 10.000000 
Rear_Toe3_03 0.000000 0.000000 0.000000 0.000000 0.000000 0.000000 10.000000 
Back_Bone 0.000000 0.000000 0.000000 0.000000 0.000000 0.000000 10.000000 
Head 0.000000 0.000000 0.000000 0.000000 0.000000 0.000000 10.000000 
Motor_Bone 0.000000 0.000000 0.000000 0.000000 0.000000 0.000000 10.000000 
Ping_Mechanism 0.000000 0.000000 0.000000 0.000000 0.000000 0.000000 10.000000 
BN_LookIK 0.000000 0.000000 0.000000 0.000000 0.000000 0.000000 10.000000 
bottomMouth 0.000000 0.000000 0.000000 0.000000 0.000000 0.000000 10.000000 
L_Mouth01 0.000000 0.000000 0.000000 0.000000 0.000000 0.000000 10.000000 
L_mouthFront 0.000000 0.000000 0.000000 0.000000 0.000000 0.000000 10.000000 
mouthGun 0.000000 0.000000 0.000000 0.000000 0.000000 0.000000 10.000000 
R_Mouth01 0.000000 0.000000 0.000000 0.000000 0.000000 0.000000 10.000000 
R_mouthFront 0.000000 0.000000 0.000000 0.000000 0.000000 0.000000 10.000000 
TopMouth 0.000000 0.000000 0.000000 0.000000 0.000000 0.000000 10.000000 
weapon_bone 0.000000 0.000000 0.000000 0.000000 0.000000 0.000000 10.000000 
#Beginning of Data. Separated by tabs
#Fr	Tx	Ty	Tz	Rx	Ry	Rz	SF
[Pinger_Root]
7 0.000000 777.777832 0.000000 -0.000075 -0.000000 -0.000020 777.777832
8 0.000000 907.407532 0.000000 -0.000075 -0.000000 -0.000020 907.407532
9 0.000000 1037.037109 0.000000 -0.000075 -0.000000 -0.000020 1037.037109
[Pelvis]
7 -237.792633 1382.630615 5262.560547 93.708847 -79.452599 -101.573730 5446.352539
8 -275.521790 1364.027588 5274.363770 90.144035 -76.717751 -97.548630 5454.851074
9 -302.903107 1357.638184 5281.862793 87.295815 -75.563042 -94.116165 5461.959961
[L_Hip]
7 5.766392 125.831482 872.656799 -178.250168 -81.786369 87.376007 881.701050
8 5.766392 125.831482 872.656799 -178.250168 -81.786369 87.376007 881.701050
9 5.766392 125.831482 872.656799 -178.250168 -81.786369 87.376007 881.701050
[R_Hip]
7 5.765438 125.836372 -872.654907 -1.748770 81.786041 87.376961 881.699829
8 5.765438 125.836372 -872.654907 -1.748770 81.786041 87.376961 881.699829
9 5.765438 125.836372 -872.654907 -1.748770 81.786041 87.376961 881.699829
[Rear_Leg01]
7 -192.298416 -925.602966 -0.001907 172.079773 9.901348 -158.496765 945.367432
8 -192.298416 -925.602966 -0.001907 171.060608 8.296198 -155.695358 945.367432
9 -192.298416 -925.602966 -0.001907 171.371307 8.500866 -157.891159 945.367432
[Spine1]
7 290.604584 5.007505 0.000477 10.084454 -3.842182 40.962997 290.647736
8 290.604584 5.007505 0.000477 9.608644 -4.230634 44.110920 290.647736
9 290.604584 5.007505 0.000477 8.864336 -4.570934 45.614796 290.647736
[L_Leg01]
7 761.932007 -0.002384 -0.069261 68.437965 -1.725000 -74.523788 761.932068
8 761.932007 -0.002384 -0.069261 69.336052 1.590486 -76.464706 761.932068
9 761.932007 -0.002384 -0.069261 69.912148 3.688223 -78.198792 761.932068
[L_Leg02]
7 1441.140503 -0.000954 -0.000715 -1.308644 0.790610 -98.230812 1441.140503
8 1441.140503 -0.000954 -0.000715 -1.292756 0.808249 -96.415489 1441.140503
9 1441.140503 -0.000954 -0.000715 -1.276309 0.825384 -94.599258 1441.140503
[L_Leg03]
7 1686.963989 -0.000715 -0.000954 0.086668 -0.011318 86.463654 1686.963989
8 1686.963989 -0.000715 -0.000954 0.093994 -0.013148 84.690338 1686.963989
9 1686.963989 -0.000715 -0.000954 0.101374 -0.014751 82.917030 1686.963989
[L_Foot]
7 3041.570068 -30.715107 11.297464 -12.280066 16.764593 79.752907 3041.746094
8 3041.570068 -30.715107 11.297464 -11.975212 16.813444 81.128456 3041.746094
9 3041.570068 -30.715107 11.297464 -11.669109 16.855282 82.504784 3041.746094
[L_Toe1_01]
7 -188.216690 -224.732346 -21.137953 89.495331 -2.549388 -164.259766 293.899567
8 -188.216690 -224.732346 -21.137953 89.440964 -2.312401 -163.971130 293.899567
9 -188.216690 -224.732346 -21.137953 89.404594 -2.164799 -163.476532 293.899567
[L_Toe2_01]
7 200.746536 -219.926590 148.838394 -77.657616 -13.889054 -44.431973 332.896027
8 200.746536 -219.926590 148.838394 -77.700775 -13.747919 -44.401184 332.896027
9 200.746536 -219.926590 148.838394 -77.743828 -13.606762 -44.370514 332.896027
[L_Toe3_01]
7 188.832520 -219.859131 -191.078659 -105.557816 15.697233 -45.768761 347.140900
8 188.832520 -219.859131 -191.078659 -105.691635 16.078686 -45.940907 347.140900
9 188.832520 -219.859131 -191.078659 -105.826874 16.459726 -46.114288 347.140900
[planeAlignerLeft]
7 -28.007601 -614.274658 12.959806 0.000000 -90.000000 -90.001900 615.049438
8 -34.072849 -615.558105 8.430049 0.000000 -90.000000 -90.001900 616.557983
9 -40.138096 -616.841431 3.900297 0.000000 -90.000000 -90.001900 618.158203
[L_Toe1_02]
7 413.761139 0.000477 0.000000 0.001407 -23.072332 0.001407 413.761139
8 413.761139 0.000477 0.000000 0.001405 -23.292667 0.001405 413.761139
9 413.761139 0.000477 0.000000 0.001403 -23.513020 0.001403 413.761139
[L_Toe1_03]
7 464.317322 0.000358 -0.000089 0.011608 78.394966 0.011608 464.317322
8 464.317322 0.000358 -0.000089 0.010614 77.300545 0.010614 464.317322
9 464.317322 0.000358 -0.000089 0.009776 76.205811 0.009776 464.317322
[L_Toe2_02]
7 342.235809 -0.000477 0.000238 0.001180 -78.108490 0.001180 342.235809
8 342.235809 -0.000477 0.000238 0.001180 -78.270103 0.001180 342.235809
9 342.235809 -0.000477 0.000238 0.001180 -78.431694 0.001180 342.235809
[L_Toe2_03]
7 420.210846 -0.000715 0.000000 -179.997360 75.021172 -179.993835 420.210846
8 420.210846 -0.000715 0.000000 -179.997635 74.042152 -179.994095 420.210846
9 420.210846 -0.000715 0.000000 -179.997864 73.063316 -179.994339 420.210846
[L_Toe3_02]
7 329.270111 0.000954 0.000000 0.001177 -81.923790 0.001177 329.270111
8 329.270111 0.000954 0.000000 0.001176 -81.978012 0.001176 329.270111
9 329.270111 0.000954 0.000000 0.001176 -82.032326 0.001176 329.270111
[L_Toe3_03]
7 439.137451 -0.001907 0.000954 -179.998093 71.988327 -179.994553 439.137451
8 439.137451 -0.001907 0.000954 -179.998184 71.588951 -179.994644 439.137451
9 439.137451 -0.001907 0.000954 -179.998260 71.189568 -179.994705 439.137451
[planeLockWeightLeft]
7 999.998779 0.098231 0.076163 -0.011826 -0.004376 0.005620 999.998840
8 999.998779 0.098226 0.076172 -0.011826 -0.004376 0.005620 999.998840
9 999.998779 0.098220 0.076180 -0.011826 -0.004376 0.005620 999.998840
[R_Leg01]
7 761.455627 -0.001907 -0.000358 88.966560 26.274355 77.260490 761.455688
8 761.455627 -0.001907 -0.000358 87.981461 31.850525 76.192696 761.455688
9 761.455627 -0.001907 -0.000358 87.474152 35.043652 75.147987 761.455688
[R_Leg02]
7 1441.140625 0.000000 -0.000238 0.218197 0.026126 -69.084305 1441.140625
8 1441.140625 0.000000 -0.000238 0.226031 0.035648 -65.507614 1441.140625
9 1441.140625 0.000000 -0.000238 0.228451 0.037117 -62.810925 1441.140625
[R_Leg03]
7 1686.963989 0.000954 0.001431 -0.118157 0.008207 77.533707 1686.963989
8 1686.963989 0.000954 0.001431 -0.125193 0.005576 75.821007 1686.963989
9 1686.963989 0.000954 0.001431 -0.136172 0.004769 73.309776 1686.963989
[R_Foot]
7 3041.560059 -30.531288 -11.204481 16.229488 -22.777920 90.043655 3041.734131
8 3041.560059 -30.531288 -11.204481 16.606815 -23.199419 90.849846 3041.734131
9 3041.560059 -30.531288 -11.204481 16.839380 -23.683659 92.445770 3041.734131
[planeAlignerRight]
7 -23.321156 -817.692200 16.190035 0.000000 -89.960434 -90.005180 818.184937
8 -32.055065 -835.056824 18.311460 0.000000 -89.960434 -90.005180 835.872498
9 -42.434715 -841.642151 19.116362 0.000000 -89.960434 -90.005180 842.928040
[R_Toe1_01]
7 -188.383347 -224.864899 21.052242 91.127914 0.958834 -147.724213 294.101532
8 -188.383347 -224.864899 21.052242 91.167313 0.818889 -145.772781 294.101532
9 -188.383347 -224.864899 21.052242 91.180374 0.747500 -144.703445 294.101532
[R_Toe2_01]
7 200.637817 -220.002121 -148.787384 -104.664307 8.663686 -59.069363 332.857574
8 200.637817 -220.002121 -148.787384 -104.858604 8.383463 -60.266293 332.857574
9 200.637817 -220.002121 -148.787384 -104.995415 8.352786 -60.835171 332.857574
[R_Toe3_01]
7 188.606735 -220.092957 191.126343 -70.328224 -12.315483 -61.408833 347.192566
8 188.606735 -220.092957 191.126343 -69.979805 -12.150802 -62.666637 347.192566
9 188.606735 -220.092957 191.126343 -69.792755 -12.209638 -63.250511 347.192566
[planeLockWeightRight]
7 999.999329 -0.000286 0.076165 -0.011823 -0.004379 -0.000027 999.999329
8 999.999329 -0.000334 0.076172 -0.011823 -0.004379 -0.000027 999.999329
9 999.999207 -0.000381 0.076180 -0.011823 -0.004379 -0.000027 999.999207
[R_Toe1_02]
7 413.762085 0.000477 -0.000119 0.001385 -25.850527 0.001385 413.762085
8 413.762085 0.000477 -0.000119 0.001385 -25.833609 0.001385 413.762085
9 413.762085 0.000477 -0.000119 0.001385 -25.816706 0.001385 413.762085
[R_Toe1_03]
7 464.317810 0.000000 0.001088 0.004358 58.708912 0.004358 464.317810
8 464.317810 0.000000 0.001088 0.003824 54.252003 0.003824 464.317810
9 464.317810 0.000000 0.001088 0.003494 50.750210 0.003494 464.317810
[R_Toe2_02]
7 342.234741 -0.000954 0.000238 0.001189 -71.497520 0.001189 342.234741
8 342.234741 -0.000954 0.000238 0.001190 -71.095840 0.001190 342.234741
9 342.234741 -0.000954 0.000238 0.001189 -71.339180 0.001189 342.234741
[R_Toe2_03]
7 420.210846 0.000715 -0.000268 0.019773 83.194412 0.019773 420.210846
8 420.210846 0.000715 -0.000268 0.017269 82.206154 0.017269 420.210846
9 420.210846 0.000715 -0.000268 0.018721 82.811386 0.018721 420.210846
[R_Toe3_02]
7 329.270355 -0.000477 -0.000954 0.001183 -75.203720 0.001183 329.270355
8 329.270355 -0.000477 -0.000954 0.001184 -74.761192 0.001184 329.270355
9 329.270355 -0.000477 -0.000954 0.001184 -74.935539 0.001184 329.270355
[R_Toe3_03]
7 439.137939 0.000238 0.001431 -0.015049 85.046265 -0.011549 439.137939
8 439.137939 0.000238 0.001431 -0.012536 83.890709 -0.009035 439.137939
9 439.137939 0.000238 0.001431 -0.013385 84.336899 -0.009884 439.137939
[Rear_Leg02]
7 1162.777710 -0.029802 0.005960 23.548317 -8.753378 -122.458435 1162.777710
8 1162.777710 -0.029802 0.005960 16.571999 -16.425228 -105.467461 1162.777710
9 1162.777710 -0.029802 0.005960 15.459883 -14.690938 -113.041336 1162.777710
[Rear_Leg03]
7 607.192505 -0.013351 -0.073195 0.009921 -0.006143 79.883476 607.192505
8 607.192505 -0.013351 -0.073195 0.010168 -0.005723 75.101852 607.192505
9 607.192505 -0.013351 -0.073195 0.010151 -0.005754 75.451584 607.192505
[Rear_Leg04]
7 995.874512 -0.020504 -0.011921 -0.044690 -0.012943 101.853653 995.874573
8 995.874512 -0.020504 -0.011921 -0.045765 -0.016551 83.651627 995.874573
9 995.874512 -0.020504 -0.011921 -0.045909 -0.016146 84.664452 995.874573
[Rear_Foot]
7 3096.176270 -0.067472 -0.041425 -53.109432 59.383549 90.767487 3096.176270
8 3096.176270 -0.067472 -0.041425 -58.521355 64.078560 79.270683 3096.176270
9 3096.176270 -0.067472 -0.041425 -59.766808 66.205254 81.150970 3096.176270
[planeAlignerCenter]
7 5.740182 311.802917 -758.953491 0.000009 0.000003 -179.999985 820.526917
8 1.036377 -126.438560 -930.230408 0.000009 0.000003 -179.999985 938.784485
9 1.036158 -86.431801 -886.460999 0.000009 0.000003 -179.999985 890.665283
[Rear_Toe1_01]
7 0.653352 83.966492 -371.173737 0.083711 39.899185 90.039238 380.553192
8 0.653352 83.966492 -371.173737 0.074465 33.469227 90.033012 380.553192
9 0.653352 83.966492 -371.173737 0.072452 30.710884 90.030449 380.553192
[Rear_Toe2_01]
7 178.200760 -294.826019 -362.060547 121.630424 80.996170 51.015102 499.765686
8 178.200760 -294.826019 -362.060547 -1.680094 50.524303 -74.732666 499.765686
9 178.200760 -294.826019 -362.060547 -1.241279 52.733757 -73.992958 499.765686
[Rear_Toe3_01]
7 -153.359680 -308.780914 -362.060852 -117.576065 80.264229 130.831482 499.952881
8 -153.359680 -308.780914 -362.060852 1.735259 50.597946 -107.173172 499.952881
9 -153.359680 -308.780914 -362.060852 1.249129 52.761230 -108.003754 499.952881
[planeLockWeightCenter]
7 843.750183 0.000000 0.076218 -0.011814 -0.004373 -0.000015 843.750183
8 1000.000732 0.000458 0.076170 -0.011814 -0.004373 -0.000015 1000.000732
9 1000.000732 0.000454 0.076173 -0.011814 -0.004373 -0.000015 1000.000732
[Rear_Toe1_02]
7 379.707825 0.194073 0.000477 -0.000767 -33.624729 0.000838 379.707855
8 379.707825 0.194073 0.000477 -0.000767 -33.624729 0.000838 379.707855
9 379.707825 0.194073 0.000477 -0.000767 -33.624729 0.000838 379.707855
[Rear_Toe1_03]
7 500.129700 0.165701 0.000119 0.014345 80.614334 0.014345 500.129761
8 500.129700 0.165701 0.000119 -0.012373 85.335075 -0.015872 500.129761
9 500.129700 0.165701 0.000119 -0.009349 84.063705 -0.012850 500.129761
[Rear_Toe2_02]
7 340.494507 0.000238 -0.000954 179.998825 -86.962234 179.998825 340.494507
8 340.494507 0.000238 -0.000954 0.001262 -46.949574 0.001262 340.494507
9 340.494507 0.000238 -0.000954 0.001217 -59.228600 0.001217 340.494507
[Rear_Toe2_03]
7 433.103577 0.000000 0.000238 -179.996338 53.364685 180.000000 433.103546
8 433.103577 0.000000 0.000238 -0.003308 41.031845 0.000534 433.103546
9 433.103577 0.000000 0.000238 0.003917 55.126171 0.003917 433.103546
[Rear_Toe3_02]
7 340.494141 -0.000358 -0.000477 -179.994171 -87.016853 -179.994171 340.494171
8 340.494141 -0.000358 -0.000477 -0.002496 -47.122173 -0.002496 340.494171
9 340.494141 -0.000358 -0.000477 -0.002409 -59.291206 -0.002409 340.494171
[Rear_Toe3_03]
7 433.103577 0.001431 -0.000238 179.992554 53.724731 179.999908 433.103546
8 433.103577 0.001431 -0.000238 0.000528 41.227295 -0.003312 433.103546
9 433.103577 0.001431 -0.000238 -0.000090 55.209881 -0.003755 433.103546
[Back_Bone]
7 1312.175781 -701.934692 0.000954 -3.264964 -2.253788 -83.843361 1488.125488
8 1312.175781 -701.934692 0.000954 -3.195429 -2.810387 -83.415443 1488.125488
9 1312.175781 -701.934692 0.000954 -3.130025 -3.367467 -82.987991 1488.125488
[Head]
7 1406.159424 809.709290 0.001431 -3.501349 1.738284 0.701751 1622.625488
8 1406.159424 809.709290 0.001431 -3.893329 1.554011 0.245782 1622.625488
9 1406.159424 809.709290 0.001431 -3.888045 1.254529 0.025065 1622.625488
[Motor_Bone]
7 1158.364380 -417.834747 0.000477 -1.034497 -1.094875 -107.077385 1231.419434
8 1158.364380 -417.834747 0.000477 -2.188165 -1.022762 -107.007042 1231.419434
9 1158.364380 -417.834747 0.000477 -2.074372 -0.843159 -106.828514 1231.419434
[Ping_Mechanism]
7 1175.905151 -398.333130 -8.703689 0.000103 -0.000053 82.120995 1241.570679
8 1166.744263 -387.233887 -6.347729 0.000103 -0.000053 82.120995 1229.342285
9 1163.381958 -381.950684 -2.627978 0.000103 -0.000053 82.120995 1224.479736
[BN_LookIK]
7 193.241119 1380.371704 -0.002861 0.000000 89.965736 -31.038179 1393.832153
8 193.241119 1380.371704 -0.002861 0.000000 89.965736 -31.038179 1393.832153
9 193.241119 1380.371704 -0.002861 0.000000 89.965736 -31.038179 1393.832153
[bottomMouth]
7 -435.092926 615.759399 -0.000954 -0.000022 0.000016 73.527184 753.966492
8 -435.092926 615.759399 -0.000954 -0.000022 0.000016 73.527184 753.966492
9 -435.092926 615.759399 -0.000954 -0.000022 0.000016 73.527184 753.966492
[L_Mouth01]
7 554.440979 7.658243 838.222046 150.204178 23.759130 109.605339 1005.027161
8 554.440979 7.658243 838.222046 150.204178 23.759130 109.605339 1005.027161
9 554.440979 7.658243 838.222046 150.204178 23.759130 109.605339 1005.027161
[L_mouthFront]
7 551.629089 934.514771 339.150421 0.000081 2.804060 79.119301 1136.941284
8 551.629089 934.514771 339.150421 0.000081 2.804060 79.119301 1136.941284
9 551.629089 934.514771 339.150421 0.000081 2.804060 79.119301 1136.941284
[mouthGun]
7 55.332661 1627.420898 0.000000 0.000023 0.000009 -11.038128 1628.361328
8 55.332661 1627.420898 0.000000 0.000023 0.000009 -11.038128 1628.361328
9 55.332661 1627.420898 0.000000 0.000023 0.000009 -11.038128 1628.361328
[R_Mouth01]
7 554.442383 7.659197 -838.223938 29.795891 -23.759109 109.605331 1005.029541
8 554.442383 7.659197 -838.223938 29.795891 -23.759109 109.605331 1005.029541
9 554.442383 7.659197 -838.223938 29.795891 -23.759109 109.605331 1005.029541
[R_mouthFront]
7 551.629089 934.514282 -339.151367 0.000029 -2.803930 79.119133 1136.941162
8 551.629089 934.514282 -339.151367 0.000029 -2.803930 79.119133 1136.941162
9 551.629089 934.514282 -339.151367 0.000029 -2.803930 79.119133 1136.941162
[TopMouth]
7 461.269867 -56.106091 -0.008583 -0.000059 -0.000268 92.025169 464.669525
8 461.269867 -56.106091 -0.008583 -0.000059 -0.000268 92.025169 464.669525
9 461.269867 -56.106091 -0.008583 -0.000059 -0.000268 92.025169 464.669525
[weapon_bone]
7 -987.239868 1448.372803 0.001431 0.000000 89.965736 -31.038221 1752.833740
8 -987.239868 1448.372803 0.001431 0.000000 89.965736 -31.038221 1752.833740
9 -987.239868 1448.372803 0.001431 0.000000 89.965736 -31.038221 1752.833740
